<?xml version="1.0" encoding="utf-8"?>
<!-- Generator: Adobe Illustrator 27.5.0, SVG Export Plug-In . SVG Version: 6.00 Build 0)  -->
<svg version="1.1" id="Livello_1" xmlns="http://www.w3.org/2000/svg" xmlns:xlink="http://www.w3.org/1999/xlink" x="0px" y="0px"
	 viewBox="0 0 3908 1748" style="enable-background:new 0 0 3908 1748;" xml:space="preserve">
<g transform="translate(0.000000,1748.000000) scale(0.100000,-0.100000)">
	<path d="M23862.3,16658.1c-140.6-62.8-127.7-151.5,58.4-402.5c84.4-112.5,181.8-257.5,214.2-324.6
		c127.7-253.2,205.6-610.2,225-1049.5c15.1-285.6-8.7-218.5-73.6,212.1c-23.8,153.6-58.4,333.2-77.9,400.3
		c-64.9,227.2-214.2,562.6-240.2,538.8c-4.3-6.5,17.3-103.9,45.4-216.4c30.3-114.7,69.2-357,88.7-538.8
		c45.4-469.6,116.8-696.8,298.6-969.4c149.3-225,257.5-302.9,415.5-302.9c281.3,0,443.6,218.5,508.5,692.4
		c45.4,318.1-54.1,757.3-229.4,1014.8c-62.8,93-64.9,69.2-8.7-134.2c51.9-183.9,108.2-530.1,106-653.5c0-67.1-17.3-26-73.6,183.9
		c-162.3,608-363.5,1021.3-647,1317.8c-186.1,194.7-296.4,261.8-432.8,261.8C23979.1,16686.2,23899,16673.3,23862.3,16658.1z"/>
	<path d="M15453.6,16459c-71.4-36.8-95.2-114.7-58.4-183.9c15.1-28.1,77.9-119,142.8-203.4c244.5-320.2,346.2-616.7,393.8-1151.2
		c41.1-460.9,10.8-452.2-51.9,15.1c-19.5,136.3-58.4,335.4-88.7,439.3c-54.1,196.9-194.7,528-214.2,508.5
		c-6.5-6.5,13-110.4,41.1-233.7c30.3-121.2,64.9-344.1,80.1-495.5c30.3-344,82.2-543.1,192.6-755.2
		c201.2-387.3,411.1-515,649.2-393.8c132,67.1,183.9,140.6,251,354.9c110.4,350.5,82.2,722.7-82.2,1079.8
		c-36.8,80.1-80.1,155.8-95.2,168.8c-38.9,30.3-38.9,43.3,21.6-199.1c49.8-194.7,112.5-640.5,93-660c-4.3-4.3-30.3,82.2-56.3,190.4
		c-119,484.7-292.1,885-502,1162c-222.9,294.3-354.9,391.7-536.6,391.7C15566.1,16491.5,15486,16478.5,15453.6,16459z"/>
	<path d="M22118.2,16396.3c-129.8-69.2-158-108.2-58.4-84.4c190.4,47.6,374.3-10.8,556.1-170.9c170.9-153.6,328.9-166.6,328.9-30.3
		c0,88.7-58.4,155.8-203.4,242.3c-119,69.2-160.1,60.6-47.6-10.8c43.3-26,77.9-51.9,77.9-58.4c0-4.3-32.5,8.7-69.2,32.5
		C22447.1,16472,22302.1,16491.5,22118.2,16396.3z"/>
	<path d="M23464.1,16305.4c-56.3-21.6-175.3-145-222.9-233.7c-41.1-75.7-47.6-119-47.6-367.9c2.2-225,10.8-315.9,51.9-454.4
		c45.4-162.3,151.5-430.6,166.6-417.6c2.2,4.3-13,75.7-36.8,158c-47.6,173.1-75.7,495.5-51.9,586.4c13,47.6,28.1-21.6,69.2-292.1
		c51.9-367.9,121.2-612.4,214.2-770.3c132-227.2,376.5-426.3,657.8-536.6c160.1-62.8,411.1-110.4,439.3-82.2
		c10.8,10.8-36.8,49.8-108.2,90.9c-173.1,99.5-318.1,240.2-441.4,426.3c-205.6,313.8-261.8,549.6-266.2,1107.9l-2.2,400.3
		l-75.7,151.5C23708.6,16272.9,23591.8,16350.8,23464.1,16305.4z"/>
	<path d="M21984,16229.7c-19.5-26-34.6-67.1-34.6-88.7c0-142.8,277-383,441.4-383c28.1,0,4.3,19.5-64.9,51.9
		c-60.6,28.1-119,62.8-127.7,77.9c-8.7,13,23.8,4.3,73.6-19.5c190.4-97.4,478.2-138.5,597.2-84.4c54.1,23.8,95.2,112.5,67.1,140.6
		c-6.5,8.7-75.7,21.6-153.6,30.3c-138.5,17.3-298.6,86.6-400.3,173.1c-36.8,30.3-17.3,23.8,67.1-21.6
		c121.2-67.1,300.8-138.5,300.8-121.2c0,6.5-41.1,30.3-90.9,56.3c-51.9,26-123.3,69.2-158,97.4
		C22317.3,16277.3,22049,16324.9,21984,16229.7z"/>
	<path d="M15077.1,16125.8c-82.2-32.5-199.1-192.6-227.2-309.4c-43.3-179.6-13-528,64.9-768.2c106-324.6,155.8-389.5,86.6-112.5
		c-26,106-38.9,231.5-38.9,367.9c2.2,244.5,19.5,201.2,73.6-183.9c84.4-590.7,259.7-887.2,649.2-1103.6
		c199.1-112.5,573.4-203.4,573.4-140.6c0,10.8-32.5,36.8-69.2,56.3c-315.9,160.1-579.9,534.5-657.8,936.9
		c-19.5,99.5-34.6,309.4-36.8,532.3c-4.3,350.5-6.5,374.3-62.8,493.4C15332.4,16108.5,15215.6,16182.1,15077.1,16125.8z"/>
	<path d="M13601.3,16102c-75.7-10.8-201.2-45.4-281.3-75.7c-140.6-51.9-385.2-196.9-365.7-216.4c4.3-4.3,75.7,15.1,155.8,45.4
		c140.7,54.1,517.2,142.8,592.9,138.5c19.5,0-84.4-41.1-227.2-93c-601.5-212.1-1047.3-517.2-1203.1-822.3
		c-62.8-121.2-45.4-283.5,36.8-352.7c77.9-67.1,110.4-54.1,322.4,125.5c292.1,248.8,523.6,346.2,1012.7,419.8
		c309.4,47.6,339.7,32.5,58.4-30.3c-123.3-28.1-302.9-73.6-398.1-101.7c-188.3-56.3-489-201.2-502-240.2
		c-4.3-13,71.4,4.3,170.9,38.9c99.5,32.5,277,75.7,396,95.2c294.3,47.6,515,108.2,662.1,186.1c145,77.9,354.9,257.5,398.1,346.2
		c73.6,138.5,6.5,354.9-136.3,437.1C14142.3,16091.2,13830.7,16136.6,13601.3,16102z"/>
	<path d="M21278.6,15902.9c-86.6-32.5-192.6-93-123.3-71.4c88.7,28.1,145,38.9,145,28.1c0-6.5-47.6-28.1-106-47.6
		c-60.6-19.5-134.2-56.3-166.6-80.1c-75.7-60.6-138.5-201.2-136.3-309.4v-86.6l41.1,84.4c23.8,45.4,54.1,97.4,67.1,114.7
		c49.8,58.4,207.7,136.3,322.4,158c179.6,34.6,279.1,160.1,175.3,216.4C21440.9,15937.5,21371.7,15935.4,21278.6,15902.9z"/>
	<path d="M17173.8,15822.9c-75.7-30.3-62.8-99.5,32.5-160.1c127.7-82.2,225-203.4,294.3-365.7c49.8-119,23.8-97.4-51.9,47.6
		c-36.8,69.2-99.5,155.8-136.3,188.3c-36.8,34.6-56.3,47.6-43.3,30.3c15.1-19.5,64.9-112.5,112.5-209.9
		c99.5-201.2,248.8-352.7,350.5-352.7c196.9,0,199.1,298.6,6.5,551.8c-30.3,41.1-67.1,75.7-80.1,75.7c-10.8,0-6.5-17.3,10.8-36.8
		c36.8-41.1,145-248.8,110.4-212.1c-10.8,13-62.8,77.9-112.5,147.1c-101.7,134.2-251,253.2-367.9,294.3
		c-41.1,13-73.6,23.8-75.7,21.6C17221.4,15842.3,17199.8,15833.7,17173.8,15822.9z"/>
	<path d="M21527.5,15712.5c-93-93-158-134.2-300.8-183.9c-103.9-36.8-80.1-6.5,30.3,34.6c99.5,38.9,220.7,110.4,207.7,123.3
		c-4.3,4.3-36.8-4.3-71.4-21.6c-32.5-17.3-112.5-47.6-177.4-69.2c-125.5-41.1-283.5-177.4-283.5-244.5c0-21.6,15.1-60.6,34.6-86.6
		c67.1-97.4,389.5-47.6,486.9,75.7c28.1,36.8,28.1,36.8-23.8,4.3c-82.2-49.8-177.4-86.6-164.5-64.9c6.5,10.8,64.9,49.8,129.8,84.4
		c190.4,108.2,333.2,307.3,279.1,389.5C21640,15812,21616.2,15805.6,21527.5,15712.5z"/>
	<path d="M26028.3,15727.7c-49.8-15.1-108.2-38.9-129.8-54.1c-43.3-26-43.3-26,0-13c23.8,8.7,93,17.3,151.5,23.8
		c106,8.7,106,6.5-32.5-23.8c-75.7-19.5-153.6-28.1-168.8-21.6c-15.1,4.3-23.8,2.2-17.3-8.7c6.5-10.8-15.1-30.3-49.8-41.1
		c-162.3-56.3-337.6-311.6-322.4-465.2l6.5-69.2l60.6,103.9c64.9,110.4,203.4,214.2,339.7,255.3c41.1,10.8,162.3,30.3,266.2,38.9
		c212.1,19.5,302.9,64.9,313.8,158C26461,15738.5,26249,15796.9,26028.3,15727.7z"/>
	<path d="M17028.9,15602.2c-19.5-26-34.6-75.7-34.6-110.4c0-64.9,80.1-233.7,153.6-318.1l45.4-54.1l-43.3,75.7
		c-23.8,41.1-49.8,99.5-56.3,129.8c-8.7,30.3,17.3-4.3,56.3-73.6c129.8-233.7,248.8-315.9,458.7-315.9c138.5,0,177.4,32.5,60.6,51.9
		c-155.8,23.8-337.6,229.4-393.8,443.6c-26,99.5-125.5,218.5-181.8,218.5C17076.5,15649.8,17046.2,15628.1,17028.9,15602.2z"/>
	<path d="M14477.7,15509.1c-95.2-196.9-300.8-389.5-551.8-517.2c-134.2-69.2-402.5-123.3-696.8-140.6
		c-326.7-21.6-445.8-60.6-575.6-190.4c-97.4-97.4-97.4-175.3,2.2-285.6c101.7-112.5,214.2-142.8,471.7-125.5
		c216.4,13,409,67.1,599.4,168.8c121.2,67.1,114.7,64.9-129.8-4.3c-77.9-21.6-207.7-38.9-292.1-38.9l-151.5,2.2l281.3,60.6
		c155.8,32.5,337.6,80.1,406.8,103.9c350.5,125.5,592.9,402.5,696.8,794.1c34.6,136.3,43.3,292.1,15.1,292.1
		C14544.8,15628.1,14510.1,15574,14477.7,15509.1z"/>
	<path d="M26437.2,15455c-153.6-125.5-380.8-218.5-528-214.2c-30.3,0,17.3,19.5,103.9,43.3c145,36.8,339.7,123.3,320.2,142.8
		c-4.3,4.3-34.6-2.2-69.2-15.1c-34.6-13-153.6-43.3-264-64.9c-218.5-43.3-357-110.4-445.8-218.5c-64.9-75.7-69.2-106-23.8-192.6
		c67.1-129.8,361.4-158,590.7-54.1c155.8,69.2,162.3,97.4,13,45.4c-166.6-56.3-203.4-38.9-51.9,26c225,93,313.8,147.1,419.8,253.2
		c108.2,110.4,138.5,181.8,108.2,266.2C26582.2,15554.5,26554.1,15552.4,26437.2,15455z"/>
	<path d="M21819.6,15262.4c-38.9-26-36.8-28.1,97.4-77.9c168.8-60.6,277-132,413.3-270.5c240.2-244.5,387.3-573.4,439.3-984.5
		c38.9-307.3,192.6-564.8,359.2-608c77.9-19.5,186.1,51.9,246.7,164.5c119,212.1,34.6,642.7-199.1,1012.7
		c-101.7,160.1-127.7,164.5-47.6,4.3c64.9-125.5,140.6-404.6,140.6-506.3c-2.2-43.3-36.8,34.6-97.4,220.7
		c-209.9,621-398.1,846.1-820.1,988.9C22172.3,15266.8,21871.5,15299.2,21819.6,15262.4z"/>
	<path d="M21655.1,15128.3c-34.6-10.8-101.7-54.1-142.8-97.4c-97.4-97.4-134.2-231.5-134.2-495.5c2.2-238,47.6-419.8,162.3-638.3
		c84.4-162.3,222.9-346.2,242.4-324.6c6.5,6.5-19.5,77.9-60.6,160.1c-75.7,155.8-168.8,424.1-194.7,553.9
		c-8.7,47.6,23.8-4.3,82.2-129.8c300.8-655.6,718.4-1131.7,1084.1-1235.6c80.1-23.8,231.5,13,292.1,69.2
		c88.7,82.2,60.6,140.6-158,352.7c-305.1,294.3-404.6,473.9-543.1,980.2c-114.7,421.9-90.9,402.5,64.9-47.6
		c43.3-129.8,119-311.6,164.5-400.3c95.2-179.6,231.5-378.7,251-359.2c6.5,6.5-10.8,58.4-36.8,114.7
		c-99.5,209.9-127.7,290-194.7,530.1c-93,337.6-203.4,556.1-376.5,746.5C21958.1,15123.9,21830.4,15180.2,21655.1,15128.3z"/>
	<path d="M20296.3,14905.4c-194.7-73.6-499.8-344.1-614.5-551.8c-47.6-84.4-41.1-80.1,108.2,67.1c86.6,86.6,201.2,181.8,255.3,209.9
		c82.2,43.3,58.4,15.1-162.3-196.9c-142.8-138.5-290-302.9-328.9-365.7c-136.3-229.4-168.8-491.2-95.2-783.3
		c69.2-261.8,166.6-374.3,140.6-160.1c-17.3,153.6,21.6,337.6,116.8,534.5c101.7,212.1,333.2,445.8,592.9,601.5
		c103.9,62.8,212.1,145,244.5,181.8c147.1,175.3,179.6,354.9,75.7,430.6C20555.9,14929.2,20400.1,14942.2,20296.3,14905.4z"/>
	<path d="M11742.6,14862.1c-110.4-34.6-216.4-99.5-285.6-173.1c-67.1-71.4-45.4-71.4,58.4-2.2c75.7,49.8,266.2,138.5,240.2,110.4
		c-6.5-6.5-69.2-49.8-140.6-95.2c-186.1-121.2-277-205.6-376.5-354.9c-88.7-132-106-220.7-64.9-300.8
		c38.9-71.4,101.7-47.6,192.6,73.6c97.4,127.7,162.3,179.6,315.9,259.7c183.9,90.9,225,86.6,54.1-4.3
		c-88.7-49.8-194.7-123.3-238-166.6l-75.7-80.1l71.4,47.6c38.9,28.1,140.7,80.1,227.2,116.8c207.7,90.9,294.3,149.3,367.9,240.2
		c80.1,103.9,99.5,162.3,75.7,235.9C12123.4,14883.8,11943.8,14922.7,11742.6,14862.1z"/>
	<path d="M17929,14814.5c-73.6-51.9-58.4-123.3,71.4-326.7c209.9-331.1,268.3-562.6,270.5-1053.8c0-166.6-4.3-296.4-10.8-292.1
		c-4.3,6.5-19.5,147.1-32.5,313.8c-13,164.5-41.1,378.7-64.9,473.9c-41.1,175.3-123.3,393.8-140.7,374.3
		c-6.5-4.3,4.3-84.4,21.6-177.4c17.3-93,32.5-266.2,32.5-387.3c2.2-434.9,62.8-692.4,227.2-956.4
		c108.2-175.3,181.8-227.2,324.6-227.2c160.1,0,259.7,69.2,335.4,229.4c170.9,354.9,170.9,753,2.2,1142.5
		c-26,58.4-51.9,99.5-58.4,93c-6.5-4.3,4.3-82.2,21.6-168.8c34.6-168.8,71.4-623.2,49.8-601.5c-8.7,6.5-38.9,134.2-67.1,283.5
		c-56.3,281.3-151.5,579.9-244.5,763.8c-112.5,220.7-307.3,463.1-419.8,521.5C18167,14860,17989.6,14857.8,17929,14814.5z"/>
	<path d="M20893.5,14766.9c-23.8-23.8-64.9-108.2-90.9-190.4c-119-363.5-307.3-608-692.4-893.7l-183.9-136.3l264,255.3
		c248.8,242.3,482.5,536.6,482.5,612.4c0,17.3-36.8-10.8-80.1-62.8c-114.7-134.2-212.1-227.2-374.3-357
		c-220.7-177.4-365.7-348.4-460.9-545.3c-99.5-209.9-121.2-337.6-71.4-432.8c45.4-90.9,151.5-175.3,240.2-192.6
		c90.9-17.3,335.4,54.1,510.7,145c147.1,80.1,359.2,290,460.9,460.9c97.4,160.1,101.7,225,8.7,110.4
		c-90.9-114.7-264-285.6-385.2-378.7c-108.2-84.4-88.7-51.9,88.7,147.1c274.8,302.9,484.7,683.8,553.9,1004
		c43.3,201.2,26,300.8-64.9,396C21008.2,14803.7,20947.6,14821,20893.5,14766.9z"/>
	<path d="M12194.8,14628.4c-30.3-114.7-164.5-277-292.1-350.5c-49.8-30.3-162.3-73.6-248.8-99.5
		c-164.5-49.8-285.6-140.6-285.6-214.2c0-69.2,82.2-121.2,192.6-119c106,0,331.1,103.9,404.6,183.9c26,28.1,2.2,21.6-80.1-23.8
		c-64.9-34.6-132-62.8-149.3-62.8s36.8,34.6,119,77.9c175.3,88.7,279.1,177.4,339.7,296.4c49.8,97.4,75.7,313.8,45.4,370
		C12223,14717.1,12214.3,14708.5,12194.8,14628.4z"/>
	<path d="M26450.2,14686.8c-173.1-47.6-447.9-190.4-603.7-315.9c-73.6-60.6-129.8-114.7-125.5-119c4.3-6.5,60.6,23.8,125.5,67.1
		c114.7,75.7,339.7,168.8,463.1,192.6c36.8,6.5-60.6-49.8-212.1-127.7c-346.2-175.3-491.2-270.5-597.2-396
		c-188.3-218.5-270.5-480.4-257.5-809.3c8.7-218.5,45.4-320.2,71.4-199.1c60.6,266.2,112.5,374.3,259.7,556.1
		c181.8,225,450.1,385.2,826.6,493.4c251,73.6,311.6,99.5,396,175.3c218.5,201.2,233.7,352.7,43.3,450.1
		C26722.9,14715,26593,14725.8,26450.2,14686.8z"/>
	<path d="M17478.9,14472.6c-69.2-73.6-97.4-125.5-116.8-214.2c-41.1-177.4-19.5-551.8,43.3-746.5c28.1-86.6,54.1-153.6,58.4-147.1
		c4.3,4.3,0,64.9-13,134.2c-26,136.3-28.1,372.2-4.3,473.9c10.8,45.4,21.6-6.5,32.5-173.1c34.6-515,108.2-761.7,292.1-967.2
		c160.1-179.6,536.6-376.5,685.9-359.2c60.6,6.5,58.4,8.7-73.6,101.7c-153.6,108.2-255.3,235.9-350.5,439.3
		c-106,229.4-136.3,415.5-116.8,731.4c23.8,404.6,19.5,499.8-32.5,618.9c-69.2,155.8-123.3,203.4-225,203.4
		C17582.8,14567.8,17556.8,14554.9,17478.9,14472.6z"/>
	<path d="M27129.7,14347.1c-23.8-28.1-95.2-119-155.8-203.4c-196.9-270.5-383-413.3-744.4-573.4c-478.2-212.1-538.8-212.1-114.7,0
		c142.8,71.4,320.2,170.9,393.8,222.9c147.1,103.9,331.1,268.3,331.1,298.6c0,10.8-58.4-19.5-132-67.1
		c-71.4-49.8-205.6-123.3-296.4-164.5c-502-229.4-569.1-268.3-729.2-426.3c-86.6-84.4-188.3-201.2-225-259.7
		c-119-190.4-80.1-380.8,106-506.3c71.4-47.6,90.9-49.8,335.4-43.3c287.8,10.8,424.1,47.6,634,173.1
		c136.3,82.2,389.5,309.4,370,328.9c-8.7,8.7-84.4-30.3-170.9-84.4c-138.5-90.9-339.7-192.6-495.5-253.2
		c-73.6-28.1-73.6-26,235.9,179.6c601.5,398.1,1014.8,952.1,930.5,1239.9c-32.5,114.7-99.5,186.1-173.1,186.1
		C27196.7,14394.7,27153.5,14373.1,27129.7,14347.1z"/>
	<path d="M14315.4,14102.6c-264-101.7-484.7-307.3-618.9-575.6c-99.5-201.2-99.5-257.5,0-108.2c43.3,64.9,151.5,190.4,240.2,281.3
		l160.1,164.5l-123.3-173.1c-320.2-454.4-463.1-811.4-463.1-1153.3c0-158,2.2-162.3,84.4-244.5c86.6-86.6,170.9-110.4,214.2-56.3
		c10.8,13,47.6,121.2,77.9,240.2c30.3,116.8,88.7,272.6,125.5,341.9c82.2,153.6,305.1,417.6,471.7,556.1
		c127.7,106,108.2,75.7-106-158c-151.5-166.6-305.1-389.5-370-541c-56.3-132-28.1-125.5,64.9,15.1
		c41.1,60.6,175.3,216.4,296.4,344.1c240.2,253.2,331.1,387.3,396,599.4c82.2,261.8,36.8,415.5-145,491.2
		C14525.3,14167.5,14473.4,14163.2,14315.4,14102.6z"/>
	<path d="M14867.2,13825.6c13-229.4-17.3-376.5-129.8-584.2c-73.6-142.8-281.3-363.5-489-523.6
		c-151.5-116.8-235.9-246.7-255.3-391.7c-8.7-71.4-2.2-93,47.6-138.5c82.2-75.7,246.7-73.6,383,6.5
		c132,75.7,361.4,326.7,445.8,486.9c90.9,168.8,88.7,194.7-4.3,56.3c-73.6-108.2-305.1-333.2-344.1-333.2
		c-10.8,0,45.4,71.4,127.7,158c333.2,359.2,424.1,538.8,426.3,837.4c0,132-13,222.9-47.6,320.2c-41.1,123.3-140.7,307.3-162.3,307.3
		C14858.5,14026.9,14860.7,13936,14867.2,13825.6z"/>
	<path d="M12056.3,13845.1c-363.5-158-636.2-445.8-774.7-811.4c-26-62.8-41.1-121.2-34.6-125.5c4.3-6.5,49.8,49.8,97.4,121.2
		c110.4,162.3,352.7,441.4,426.3,489c38.9,26,23.8-6.5-62.8-123.3c-350.5-478.2-551.8-921.8-597.2-1315.6
		c-28.1-244.5-2.2-359.2,103.9-458.7c188.3-177.4,261.8-132,350.5,220.7c108.2,426.3,220.7,608,625.3,1006.2
		c285.6,279.1,281.3,244.5-6.5-73.6c-216.4-238-393.8-502-467.4-688.1c-23.8-62.8-41.1-114.7-34.6-114.7c4.3,0,64.9,75.7,132,168.8
		c69.2,90.9,235.9,283.5,374.3,428.4c352.7,367.9,489,621,515,960.7c8.7,123.3,4.3,149.3-41.1,216.4
		C12536.7,13931.7,12331.2,13964.1,12056.3,13845.1z"/>
	<path d="M12768.3,13754.2c-6.5-10.8-2.2-73.6,10.8-138.5c47.6-259.7-17.3-582.1-170.9-841.7c-103.9-175.3-337.6-426.3-512.8-551.8
		c-231.5-166.6-354.9-333.2-391.7-534.5c-41.1-220.7,212.1-328.9,478.2-205.6c199.1,93,502,415.5,634,677.3
		c73.6,147.1,51.9,151.5-43.3,8.7c-90.9-138.5-268.3-309.4-391.7-378.7c-56.3-32.5-38.9-6.5,82.2,119
		c452.2,471.7,575.6,705.4,575.6,1092.7c2.2,145-10.8,235.9-45.4,344.1C12919.7,13570.3,12796.4,13797.5,12768.3,13754.2z"/>
	<path d="M15983.7,13496.7c-77.9-32.5-123.3-101.7-103.9-160.1c8.7-30.3,54.1-49.8,170.9-77.9c225-49.8,357-121.2,538.8-296.4
		c158-153.6,136.3-147.1-71.4,21.6c-116.8,93-300.8,199.1-348.4,199.1c-15.1,0,17.3-30.3,69.2-69.2c51.9-36.8,160.1-127.7,238-199.1
		c186.1-170.9,346.2-253.2,523.6-266.2c132-10.8,138.5-10.8,194.7,58.4c36.8,43.3,58.4,93,58.4,136.3
		c-2.2,168.8-188.3,426.3-380.8,528c-209.9,108.2-246.7,106-84.4-10.8c142.8-101.7,251-199.1,220.7-199.1c-8.7,0-62.8,34.6-119,75.7
		c-214.2,151.5-579.9,294.3-761.7,292.1C16087.6,13527,16022.7,13514,15983.7,13496.7z"/>
	<path d="M24035.4,13464.3c-38.9-8.7-103.9-36.8-145-62.8c-93-56.3-264-242.4-311.6-335.4c-28.1-62.8-26-60.6,51.9,21.6
		c45.4,49.8,121.2,119,168.8,151.5c62.8,45.4,38.9,10.8-90.9-125.5c-186.1-190.4-270.5-337.6-298.6-506.3
		c-17.3-106,38.9-380.8,90.9-460.9l38.9-56.3l13,183.9c19.5,307.3,155.8,519.3,467.4,731.4c203.4,138.5,300.8,337.6,207.7,419.8
		C24176,13468.6,24117.6,13481.6,24035.4,13464.3z"/>
	<path d="M24401.1,13373.4c-13-15.1-43.3-95.2-67.1-179.6c-58.4-192.6-136.3-313.8-309.4-482.5c-218.5-212.1-264-225-69.2-21.6
		c153.6,162.3,309.4,380.8,309.4,437.1c0,10.8-30.3-19.5-67.1-64.9c-36.8-47.6-158-170.9-268.3-279.1
		c-225-216.4-315.9-367.9-331.1-562.6c-6.5-99.5-2.2-114.7,60.6-173.1c54.1-51.9,86.6-64.9,158-64.9
		c231.5,2.2,566.9,261.8,662.1,515c17.3,43.3-30.3,4.3-162.3-129.8l-186.1-190.4l110.4,142.8c242.3,315.9,370,603.7,370,830.9
		c0,93-10.8,129.8-56.3,181.8C24496.3,13401.5,24435.7,13418.8,24401.1,13373.4z"/>
	<path d="M15860.4,13135.4c-54.1-75.7-41.1-173.1,32.5-285.6c77.9-116.8,318.1-296.4,404.6-305.1c32.5-2.2,108.2-26,166.6-54.1
		c164.5-77.9,370-71.4,560.4,17.3c77.9,36.8,142.8,75.7,142.8,86.6s-45.4,10.8-110.4-2.2c-77.9-15.1-140.7-15.1-216.4,2.2
		c-207.7,47.6-302.9,108.2-506.3,320.2C16083.3,13172.2,15933.9,13241.4,15860.4,13135.4z M16247.7,12631.2
		c95.2-82.2,75.7-103.9-23.8-28.1c-69.2,54.1-86.6,69.2-149.3,147.1l-43.3,51.9l64.9-47.6
		C16133,12728.6,16200.1,12672.3,16247.7,12631.2z"/>
	<path d="M27131.8,12442.9c-4.3-15.1-10.8-112.5-15.1-214.2c-8.7-166.6-19.5-207.7-99.5-374.3c-47.6-101.7-93-186.1-99.5-186.1
		c-4.3,0,23.8,75.7,62.8,168.8c41.1,93,80.1,212.1,86.6,264c6.5,54.1,4.3,82.2-2.2,64.9c-6.5-17.3-58.4-125.5-114.7-238
		c-86.6-177.4-99.5-227.2-106-367.9c-8.7-186.1,21.6-251,136.3-272.6c166.6-32.5,426.3,300.8,419.8,543.1c0,60.6-2.2,60.6-28.1-21.6
		c-15.1-47.6-49.8-125.5-75.7-173.1c-26-47.6-41.1-67.1-34.6-43.3c127.7,391.7,129.8,731.4,6.5,839.6
		C27218.4,12475.4,27144.8,12481.9,27131.8,12442.9z"/>
	<path d="M26883,12432.1c-93-34.6-194.7-181.8-246.7-352.7c-43.3-140.6-32.5-164.5,17.3-38.9c19.5,51.9,54.1,116.8,77.9,147.1
		c28.1,34.6,15.1-6.5-32.5-110.4c-136.3-290-119-504.2,58.4-698.9c86.6-95.2,101.7-84.4,49.8,36.8
		c-75.7,183.9-21.6,434.9,147.1,683.8C27092.9,12298,27049.6,12492.7,26883,12432.1z"/>
	<path d="M25422.4,12343.4c-194.7-77.9-426.3-229.4-551.8-361.4l-97.4-101.7l108.2,75.7c60.6,41.1,151.5,97.4,205.6,123.3
		c88.7,45.4,313.8,129.8,344.1,129.8c6.5,0-101.7-62.8-242.4-140.6c-140.6-77.9-302.9-173.1-357-209.9
		c-328.9-227.2-497.7-577.7-473.9-991c8.7-173.1,45.4-324.6,71.4-296.4c6.5,6.5,30.3,88.7,49.8,183.9
		c45.4,209.9,138.5,374.3,315.9,556.1c166.6,170.9,378.7,296.4,683.8,402.5c257.5,90.9,328.9,132,443.6,255.3
		c153.6,164.5,140.6,298.6-34.6,387.3C25755.6,12421.3,25612.8,12417,25422.4,12343.4z"/>
	<path d="M26197,12075.1c-23.8-28.1-88.7-119-142.8-205.6c-188.3-294.3-354.9-437.1-740-629.7c-452.2-225-491.2-214.2-64.9,21.6
		c132,71.4,296.4,177.4,367.9,233.7c151.5,123.3,326.7,296.4,311.6,313.8c-6.5,4.3-77.9-38.9-162.3-99.5
		c-82.2-60.6-246.7-158-367.9-216.4c-287.8-138.5-521.5-292.1-621-411.1c-253.2-294.3-311.6-482.5-201.2-649.2
		c108.2-162.3,268.3-199.1,603.7-138.5c199.1,34.6,387.3,119,569.1,253.2c125.5,95.2,307.3,290,285.6,309.4
		c-4.3,4.3-67.1-34.6-138.5-86.6c-114.7-88.7-549.6-328.9-549.6-305.1c0,4.3,90.9,73.6,201.2,151.5
		c402.5,285.6,707.6,616.7,863.4,939.1c95.2,199.1,99.5,372.2,10.8,486.9C26350.7,12137.8,26266.3,12148.7,26197,12075.1z"/>
	<path d="M13521.3,11646.7c-149.3-23.8-497.7-127.7-480.4-145c6.5-4.3,64.9,0,132,15.1c142.8,28.1,564.8,32.5,638.3,4.3
		c36.8-13-56.3-26-324.6-43.3c-584.2-38.9-841.7-123.3-1099.2-363.5c-222.9-205.6-447.9-634-430.6-815.8
		c6.5-69.2,6.5-67.1,127.7,95.2c147.1,196.9,240.2,272.6,484.7,398.1c318.1,162.3,705.4,214.2,1136,155.8
		c274.8-36.8,385.2-32.5,545.3,28.1c214.2,80.1,311.6,192.6,283.5,326.7c-19.5,101.7-188.3,261.8-320.2,309.4
		C14083.9,11655.3,13709.5,11674.8,13521.3,11646.7z"/>
	<path d="M14603.2,10952.1c-47.6-26-127.7-75.7-179.6-110.4c-149.3-101.7-385.2-212.1-564.8-259.7
		c-134.2-36.8-248.8-47.6-640.5-54.1c-261.8-6.5-471.7-6.5-463.1,2.2c6.5,6.5,194.7,26,421.9,43.3c434.9,34.6,722.7,93,939.1,192.6
		c138.5,64.9,101.7,71.4-129.8,28.1c-88.7-17.3-339.7-36.8-556.1-43.3c-497.7-15.1-668.6-49.8-952.1-188.3
		c-341.9-168.8-465.2-320.2-426.3-534.5c34.6-205.6,153.6-315.9,452.2-421.9c324.6-114.7,636.2-125.5,965.1-34.6
		c158,43.3,378.7,142.8,359.2,162.3c-6.5,6.5-90.9-4.3-190.4-23.8c-179.6-34.6-776.8-71.4-755.2-47.6c8.7,8.7,108.2,28.1,225,47.6
		c800.6,129.8,1475.7,450.1,1705.1,809.3c119,190.4,60.6,478.2-97.4,478.2C14700.6,10997.5,14650.8,10975.9,14603.2,10952.1z"/>
	<path d="M13899.9,9381.1c0-10.8,62.8-49.8,136.3-88.7c209.9-108.2,430.6-352.7,525.8-582.1c71.4-170.9,121.2-417.6,136.3-698.9
		c19.5-324.6,56.3-437.1,186.1-575.6c56.3-58.4,86.6-73.6,151.5-73.6c67.1,0,97.4,15.1,164.5,86.6
		c177.4,186.1,164.5,603.7-36.8,1036.5c-82.2,179.6-116.8,199.1-54.1,32.5c56.3-145,116.8-584.2,75.7-545.3
		c-6.5,6.5-38.9,138.5-73.6,292.1c-32.5,151.5-86.6,346.2-119,430.6c-112.5,302.9-372.2,541-705.4,647
		C14122.8,9394.1,13899.9,9415.7,13899.9,9381.1z"/>
	<path d="M13672.7,9257.8c-160.1-69.2-246.7-264-264-597.2c-15.1-302.9,49.8-551.8,214.2-807.1c36.8-56.3,71.4-99.5,75.7-93
		c6.5,6.5-19.5,101.7-54.1,212.1c-125.5,383-160.1,692.4-38.9,341.9c225-651.3,528-1099.2,856.9-1265.8
		c138.5-71.4,339.7-36.8,387.3,67.1c30.3,69.2,4.3,116.8-181.8,333.2c-155.8,179.6-268.3,391.7-324.6,605.9
		c-34.6,132-116.8,601.5-119,668.6c0,77.9,28.1-15.1,97.4-320.2c73.6-324.6,201.2-664.3,292.1-781.1c56.3-71.4,54.1-38.9-10.8,153.6
		c-30.3,88.7-80.1,298.6-108.2,465.2c-73.6,428.4-145,601.5-354.9,861.2C13995.1,9281.6,13843.7,9333.5,13672.7,9257.8z"/>
	<path d="M16078.9,7689c-155.8-32.5-134.2-60.6,103.9-134.2c253.2-75.7,434.9-186.1,651.3-391.7
		c411.1-393.8,638.3-850.4,742.2-1501.7c58.4-365.7,90.9-471.7,192.6-627.5c290-443.6,584.2-489,779-119
		c121.2,227.2,116.8,523.6-17.3,934.8c-99.5,302.9-363.5,783.3-486.9,885c-47.6,38.9-49.8,47.6,93-238
		c108.2-220.7,199.1-510.7,229.4-746.5c19.5-158-10.8-101.7-127.7,227.2c-240.2,675.1-389.5,960.7-638.3,1209.6
		c-233.7,235.9-467.4,363.5-839.6,458.7C16576.6,7691.2,16206.6,7717.1,16078.9,7689z"/>
	<path d="M15789,7457.5c-119-43.3-274.8-181.8-328.9-296.4c-58.4-123.3-97.4-452.2-82.2-729.2c19.5-365.7,145-735.7,367.9-1075.4
		c108.2-168.8,313.8-400.3,339.7-385.2c10.8,6.5-28.1,95.2-86.6,196.9c-160.1,283.5-447.9,1051.6-393.8,1045.1
		c8.7,0,95.2-162.3,192.6-361.4c253.2-517.2,538.8-945.6,837.4-1255c283.5-296.4,694.6-569.1,906.7-599.4
		c145-21.6,328.9,36.8,430.6,140.6c138.5,138.5,106,225-175.3,463.1c-595.1,506.3-770.3,822.3-1114.4,2021
		c-77.9,270.5,32.5,41.1,225-473.9c69.2-186.1,166.6-419.8,216.4-519.3c147.1-292.1,497.7-783.3,497.7-696.8
		c0,13-62.8,151.5-138.5,311.6s-170.9,387.3-207.7,506.3c-274.8,867.7-385.2,1071.1-792,1460.6c-106,101.7-231.5,203.4-279.1,227.2
		C16091.9,7489.9,15905.8,7500.7,15789,7457.5z"/>
	<path d="M19500,5185.4c-376.5-95.2-692.4-365.7-887.2-759.5c-106-212.1-99.5-279.1,10.8-114.7c97.4,142.8,296.4,372.2,415.5,476
		l86.6,75.7l-58.4-75.7c-261.8-335.4-508.5-774.7-599.4-1066.8c-60.6-196.9-90.9-456.6-67.1-577.7c10.8-54.1,19.5-103.9,21.6-110.4
		c0-23.8,88.7-114.7,147.1-153.6c142.8-93,203.4-34.6,274.8,259.7c99.5,411.1,238,638.3,612.4,1006.2
		c116.8,114.7,222.9,209.9,231.5,209.9c19.5,0,4.3-19.5-255.3-311.6c-201.2-227.2-359.2-463.1-437.1-649.2
		c-19.5-45.4-30.3-86.6-26-93c6.5-4.3,56.3,58.4,114.7,138.5c56.3,80.1,207.7,255.3,333.2,385.2c266.2,277,341.9,370,417.6,523.6
		c73.6,140.6,145,400.3,145,517.2C19980.3,5083.7,19735.8,5248.2,19500,5185.4z"/>
	<path d="M20038.8,4945.2c71.4-417.6-54.1-798.5-378.7-1155.5c-75.7-82.2-201.2-194.7-277-248.8
		c-181.8-129.8-313.8-281.3-361.4-411.1c-84.4-238-26-354.9,190.4-372.2c101.7-8.7,140.6,0,257.5,58.4
		c216.4,106,467.4,374.3,605.9,649.2c75.7,149.3,58.4,164.5-28.1,26c-71.4-110.4-309.4-348.4-396-393.8
		c-28.1-15.1,13,43.3,90.9,129.8c365.7,406.8,469.6,560.4,530.1,796.3c77.9,296.4,6.5,692.4-168.8,952.1
		C20036.6,5075.1,20017.1,5064.2,20038.8,4945.2z"/>
	<path d="M20447.7,3164.4c-90.9-28.1-164.5-106-164.5-177.4c0-49.8,15.1-67.1,82.2-97.4c244.5-106,393.8-186.1,476-255.3
		c123.3-108.2,499.8-592.9,419.8-543.1c-15.1,8.7-90.9,95.2-168.8,192.6c-145,181.8-335.4,359.2-452.2,419.8
		c-56.3,28.1-49.8,17.3,45.4-82.2c58.4-64.9,166.6-194.7,235.9-290c71.4-95.2,175.3-218.5,233.7-274.8
		c123.3-123.3,385.2-255.3,502-255.3c134.2,0,270.5,132,270.5,264c0,84.4-62.8,300.8-119,419.8c-62.8,127.7-218.5,294.3-370,393.8
		c-149.3,99.5-162.3,84.4-34.6-41.1c106-103.9,307.3-348.4,307.3-374.3c0-4.3-80.1,67.1-177.4,164.5
		C21157.5,2991.3,20672.8,3231.5,20447.7,3164.4z"/>
	<path d="M20233.5,2751.1c-49.8-30.3-101.7-147.1-101.7-231.5c0-108.2,129.8-328.9,281.3-482.5c177.4-175.3,296.4-251,149.3-93
		c-97.4,106-227.2,305.1-209.9,322.4c4.3,4.3,58.4-58.4,121.2-140.6c251-328.9,458.7-471.7,735.7-506.3
		c166.6-21.6,545.3,60.6,545.3,116.8c0,8.7-80.1,19.5-177.4,26c-145,6.5-207.7,23.8-324.6,80.1c-179.6,84.4-385.2,283.5-493.4,476
		c-153.6,272.6-192.6,324.6-285.6,376.5C20356.8,2764.1,20283.3,2781.4,20233.5,2751.1z"/>
</g>
</svg>
