<?xml version="1.0" encoding="utf-8"?>
<!-- Generator: Adobe Illustrator 27.5.0, SVG Export Plug-In . SVG Version: 6.00 Build 0)  -->
<svg version="1.1" id="Livello_1" xmlns="http://www.w3.org/2000/svg" xmlns:xlink="http://www.w3.org/1999/xlink" x="0px" y="0px"
	 viewBox="0 0 3908 1748" style="enable-background:new 0 0 3908 1748;" xml:space="preserve">
<g transform="translate(0.000000,1748.000000) scale(0.100000,-0.100000)">
	<path d="M23815.8,14916.4c-342.7-63.1-651.8-201.8-920.9-418.4c-336.4-267-559.3-611.8-687.5-1053.4
		c-42-147.2-48.4-210.2-46.3-525.6c2.1-323.8,6.3-374.2,56.8-529.8c222.9-704.3,721.2-1198.4,1415-1398.2
		c145.1-42.1,214.5-48.4,523.5-48.4c311.2,0,380.6,6.3,525.6,48.4c456.2,130.4,885.2,437.3,1129,807.4
		c174.5,262.8,296.5,561.4,323.8,792.6c6.3,71.5,16.8,128.3,21,128.3c2.1,0,39.9-18.9,79.9-44.2c90.4-52.6,105.1-149.3,31.5-187.1
		c-58.9-33.6-109.3-157.7-92.5-233.4c8.4-33.6,42.1-84.1,77.8-113.5c92.5-77.8,92.5-195.5,2.1-271.2
		c-35.7-29.4-71.5-79.9-77.8-109.3c-18.9-75.7,21-187.1,84.1-227.1c42.1-29.4,50.5-50.5,50.5-138.8c0-84.1-8.4-107.2-44.2-126.2
		c-58.9-33.6-109.3-157.7-92.5-233.4c8.4-33.6,42.1-84.1,77.8-113.5c92.5-77.8,92.5-195.5,0-273.3c-35.7-29.4-69.4-79.9-77.8-113.5
		c-16.8-75.7,33.6-199.7,92.5-233.4c35.7-18.9,44.2-42.1,44.2-128.3c0-90.4-8.4-113.5-61-157.7c-107.2-90.4-105.1-222.9,4.2-328
		c33.6-29.4,54.7-79.9,61-128.3c8.4-69.4,0-86.2-48.4-121.9c-67.3-48.4-111.4-159.8-90.4-237.6c6.3-29.4,42-79.9,77.8-109.3
		c52.6-44.2,63.1-67.3,63.1-145.1c0-77.8-10.5-100.9-65.2-147.2c-35.7-29.4-69.4-79.9-77.8-113.5c-16.8-75.7,33.6-199.7,92.5-233.4
		c33.6-16.8,44.2-42,44.2-115.6c0-73.6-10.5-98.8-44.2-115.6c-58.9-33.6-109.3-157.7-92.5-233.4c8.4-33.6,42.1-84.1,77.8-113.5
		c54.7-46.3,65.2-69.4,65.2-147.2s-10.5-100.9-65.2-147.2l-63.1-52.6l-124,130.4c-904.1,973.5-1593.7,1408.7-2546.1,1608.4
		c-235.5,48.4-317.5,54.7-698,56.8c-346.9,2.1-466.8-6.3-609.7-37.8c-555.1-119.8-960.8-346.9-1324.6-738l-136.7-147.2l-136.7,147.2
		c-290.1,311.2-586.6,506.7-977.7,643.4c-328,111.4-485.7,134.6-956.6,132.5c-384.8,0-460.4-6.3-698-56.8
		c-750.6-159.8-1345.6-468.9-1961.6-1021.8c-168.2-153.5-609.7-603.4-679.1-695.9c-29.4-39.9-103-126.1-161.9-191.3
		c-56.8-65.2-157.7-182.9-220.8-260.7c-63.1-77.8-153.5-185-199.7-239.7c-48.4-52.6-119.8-138.8-159.8-191.3
		c-132.5-166.1-649.7-691.7-805.3-815.8c-557.2-452-1177.4-706.4-1858.6-761.1c-534-42-1051.2,65.2-1372.9,288
		c-117.7,82-155.6,136.7-210.2,307c-69.4,210.2-73.6,346.9-21,515.1c56.8,174.5,128.3,267,290.1,374.2
		c105.1,69.4,138.8,79.9,241.8,82c96.7,0,128.3-8.4,170.3-48.4c63.1-58.9,132.5-210.2,164-361.6c16.8-77.8,29.4-103,46.3-86.2
		c16.8,16.8,14.7,84.1-2.1,237.6c-46.3,395.3-191.3,607.6-439.4,645.5c-218.7,31.5-540.3-73.6-754.8-248.1
		c-338.5-275.4-464.7-811.6-321.7-1379.2c220.8-874.6,872.5-1501.2,1974.2-1904.9c233.4-84.1,670.7-180.8,1072.3-233.4
		c311.2-42.1,1427.6-35.7,1818.7,10.5c380.6,46.3,864.1,113.5,1009.2,140.9c58.9,12.6,214.5,39.9,346.9,65.2
		c1448.6,256.5,3061.2,979.8,4152.4,1858.6c136.7,109.3,571.9,550.9,613.9,622.3l33.6,56.8l86.2-109.3
		c103-130.4,426.8-454.1,569.8-569.8c996.6-805.3,2464.1-1494.9,3826.6-1795.5c536.1-117.7,1492.8-258.6,2047.8-298.6
		c380.6-27.3,1204.7-14.7,1484.4,23.1c803.2,107.2,1402.4,315.4,1949,677c414.2,273.3,754.8,662.3,927.2,1059.7
		c151.4,351.1,172.4,445.7,172.4,828.4c0,395.3-21,494.1-155.6,719.1c-233.4,386.9-841,603.4-1139.6,407.9
		c-136.7-90.4-235.5-336.4-260.7-647.6c-14.7-187.1,16.8-237.6,50.5-77.8c31.5,149.3,100.9,300.7,164,359.5
		c75.7,71.5,256.5,67.3,378.4-10.5c155.6-98.8,229.2-178.7,290.1-311.2c103-231.3,92.5-456.2-35.7-729.6
		c-145.1-307-851.5-521.4-1534.8-466.8c-695.9,56.8-1320.4,315.4-1877.5,777.9c-174.5,145.1-628.6,607.6-763.2,775.8
		c-42.1,52.6-138.8,168.2-214.5,254.4c-75.7,86.2-164,189.2-193.4,225l-54.7,69.4l71.5,71.5c100.9,100.9,98.8,199.7-2.1,300.7
		c-61,61-73.6,88.3-73.6,164c0,75.7,12.6,103,75.7,166.1c69.4,69.4,75.7,84.1,65.2,166.1c-8.4,65.2-29.4,103-75.7,143
		c-92.5,75.7-92.5,193.4,0,269.1c46.3,39.9,67.3,77.8,75.7,143c10.5,82,4.2,96.7-65.2,166.1c-63.1,63.1-75.7,90.4-75.7,166.1
		c0,75.7,12.6,103,73.6,164c56.8,56.8,73.6,90.4,73.6,151.4s-16.8,94.6-73.6,151.4c-96.7,96.7-100.9,195.5-12.6,277.5
		c111.4,105.1,111.4,237.6,0,336.4c-50.5,44.2-61,69.4-61,147.2s10.5,103,65.2,147.2c46.3,39.9,67.3,77.8,75.7,143
		c10.5,82,4.2,96.7-65.2,166.1c-105.1,105.1-105.1,206,0,311.2c69.4,69.4,75.7,84.1,65.2,166.1c-8.4,65.2-29.4,103-75.7,143
		c-54.7,46.3-65.2,67.3-65.2,151.4c0,75.7,8.4,103,42.1,119.8c48.4,27.3,105.1,126.1,105.1,189.2c0,67.3-56.8,164-105.1,178.7
		c-33.6,10.5-42.1,31.5-42.1,105.1c0,75.7,12.6,103,73.6,164c103,103,103,201.8-2.1,300.7c-103,98.8-94.6,168.2,29.4,235.5
		c48.4,27.3,105.1,79.9,121.9,115.6c44.2,82,29.4,250.2-27.3,325.9c-100.9,136.7-294.3,176.6-431,92.5l-73.6-46.3l-14.7,109.3
		c-18.9,138.8-103,384.8-191.3,563.5C25558.8,14622.1,24661,15069.9,23815.8,14916.4z M24595.9,14632.6
		c613.9-155.6,1089.1-637.1,1265.7-1282.5c52.6-189.2,52.6-630.8,2.1-820c-82-300.7-182.9-496.2-380.6-738
		c-445.7-542.4-1251-750.6-1934.3-500.4c-458.3,166.1-872.5,578.2-1038.6,1030.2c-191.3,519.3-121.9,1114.3,185,1587.4
		c117.7,178.7,380.6,424.7,578.2,540.3c174.5,103,431,193.4,630.8,225C24082.9,14701.9,24404.5,14683,24595.9,14632.6z
		 M26471.3,13080.9c31.5-21,71.5-98.8,71.5-140.9c0-52.6-96.7-136.7-157.7-136.7c-63.1,0-157.7,86.2-157.7,143
		c0,73.6,79.9,151.4,153.5,151.4C26418.7,13097.7,26458.7,13089.3,26471.3,13080.9z M26462.9,12389.2
		c71.5-65.2,23.1-195.5-73.6-195.5c-56.8,0-119.8,58.9-119.8,111.4C26269.5,12406,26387.2,12458.6,26462.9,12389.2z
		 M26479.7,11775.3c50.5-96.7,6.3-174.5-98.8-174.5c-58.9,0-111.4,52.6-111.4,111.4
		C26269.5,11806.8,26435.6,11855.2,26479.7,11775.3z M26454.5,11171.9c84.1-58.9,39.9-197.6-63.1-197.6
		c-56.8,0-121.9,58.9-121.9,109.3c0,44.2,71.5,121.9,111.4,121.9C26395.6,11205.5,26429.2,11190.8,26454.5,11171.9z M26462.9,10560
		c86.2-77.8,6.3-222.9-105.1-182.9c-77.8,27.3-109.3,119.8-56.8,176.6C26347.2,10604.2,26410.3,10608.4,26462.9,10560z
		 M26483.9,9912.5c37.8-86.2-6.3-157.7-96.7-157.7c-75.7,0-117.7,42-117.7,113.5C26269.5,9967.1,26441.9,10002.9,26483.9,9912.5z
		 M26462.9,9340.6c71.5-65.2,23.1-195.5-73.6-195.5c-107.2,0-157.7,138.8-73.6,197.6C26376.7,9384.7,26414.5,9384.7,26462.9,9340.6z
		 M26467.1,8711.9c86.2-84.1-14.7-229.2-124-180.8c-29.4,12.6-56.8,48.4-65.2,77.8C26250.5,8714,26389.3,8789.7,26467.1,8711.9z
		 M26454.5,8123.2c84.1-58.9,39.9-197.6-63.1-197.6c-56.8,0-121.9,58.9-121.9,109.3c0,44.2,71.5,121.9,111.4,121.9
		C26395.6,8156.9,26429.2,8142.1,26454.5,8123.2z M26462.9,7490.4c46.3-42,48.4-107.2,2.1-157.7c-46.3-52.6-73.6-48.4-138.8,21
		c-67.3,69.4-69.4,82-21,134.6C26347.2,7534.5,26412.4,7536.6,26462.9,7490.4z"/>
	<path d="M23862.1,14519c-349-69.4-653.9-235.5-895.7-487.8c-893.6-937.7-384.8-2464.1,902-2712.2
		c853.6-164,1707.2,393.2,1898.6,1238.4c191.3,849.4-313.3,1688.3-1162.7,1928C24404.5,14542.2,24059.7,14556.9,23862.1,14519z
		 M24465.5,14287.8c275.4-58.9,618.1-260.7,777.9-458.3c107.2-134.6,193.4-283.8,260.7-447.8c56.8-138.8,61-164,61-462.5
		c0-307-2.1-319.6-69.4-483.6c-145.1-355.3-374.2-603.4-708.5-769.5c-222.9-109.3-426.8-151.4-693.8-140.9
		c-588.7,25.2-1093.3,407.9-1284.6,973.5c-50.5,145.1-56.8,201.8-56.8,420.5c0,214.5,6.3,275.4,52.6,410
		c138.8,410,445.7,735.9,836.8,891.5C23876.8,14315.1,24206.9,14342.4,24465.5,14287.8z"/>
	<path d="M23723.3,14062.8c-185-201.8-367.9-603.4-418.4-929.3c-35.7-216.6-16.8-605.5,39.9-822.1
		c88.3-338.5,275.4-618.1,477.3-719.1c124-61,479.4-54.7,643.4,10.5c275.4,107.2,531.9,374.2,637.1,664.4
		c56.8,157.7,115.6,498.3,115.6,679.1c0,344.8-182.9,790.5-405.8,986.1c-117.7,103-292.2,178.7-445.7,191.3
		c-75.7,4.2-136.7,2.1-136.7-8.4c0-10.5,33.6-46.3,75.7-79.9c119.8-94.6,178.7-248.1,178.7-460.4c2.1-140.9-8.4-195.5-44.2-269.1
		c-121.9-243.9-296.5-325.9-485.7-229.2c-136.7,71.5-166.1,140.9-166.1,399.5c0,121.9,14.7,315.4,31.5,428.9
		C23860,14165.8,23843.2,14193.1,23723.3,14062.8z"/>
	<path d="M16534.9,14802.9c-29.4-8.4-88.3-12.6-132.5-6.3c-54.7,6.3-90.4,0-119.8-27.3c-27.3-25.2-56.8-31.5-105.1-21
		c-73.6,16.8-279.6-25.2-260.7-54.7c10.5-18.9-18.9-27.3-69.4-21c-48.4,6.3-201.8-42-231.3-73.6c-16.8-16.8-48.4-29.4-69.4-29.4
		c-50.5,0-119.8-37.8-225-119.8c-46.3-37.8-94.6-69.4-103-69.4c-29.4-2.1-103-69.4-119.8-109.3c-6.3-21-23.1-37.8-35.7-37.8
		c-12.6,0-16.8,10.5-8.4,23.1c8.4,14.7-46.3-35.7-121.9-109.3c-124-124-176.6-189.2-239.7-302.8c-12.6-23.1-44.2-77.8-69.4-121.9
		c-25.2-44.2-39.9-88.3-33.6-98.8s-4.2-31.5-21-48.4c-16.8-18.9-31.5-52.6-31.5-77.8c0-27.3-8.4-39.9-25.2-29.4
		c-14.7,8.4-16.8,6.3-8.4-10.5c8.4-12.6,6.3-37.8-6.3-52.6c-21-23.1-35.7-185-52.6-550.9c-4.2-71.5-12.6-138.8-21-153.5
		c-10.5-14.7-4.2-21,10.5-18.9c18.9,4.2,33.6-29.4,44.2-98.8c27.3-191.3,35.7-208.1,214.5-544.5c71.5-136.7,157.7-214.5,212.4-195.5
		c27.3,10.5,29.4,23.1,10.5,56.8c-14.7,27.3-14.7,42.1,0,42.1c31.5,0,25.2,161.9-10.5,231.3c-52.6,103-73.6,168.2-52.6,168.2
		c8.4,0,23.1-16.8,27.3-35.7c6.3-25.2,10.5-18.9,12.6,16.8c0,29.4-8.4,63.1-21,75.7c-37.8,37.8-143,447.8-132.5,519.3
		c4.2,48.4,2.1,56.8-12.6,33.6c-16.8-25.2-21-21-21,18.9c0,33.6,8.4,46.3,31.5,35.7c18.9-6.3,31.5,0,31.5,21
		c0,18.9-10.5,25.2-25.2,16.8c-16.8-10.5-18.9-4.2-8.4,25.2c8.4,21,18.9,67.3,25.2,100.9c4.2,33.6,16.8,71.5,29.4,84.1
		c10.5,10.5,21,71.5,21,132.5c0,77.8,8.4,109.3,27.3,105.1c14.7-2.1,23.1,14.7,18.9,44.2c-2.1,27.3,4.2,65.2,16.8,84.1
		c16.8,29.4,18.9,27.3,21-14.7c0-48.4,2.1-50.5,42-12.6c23.1,21,42,52.6,42,71.5c0,29.4-4.2,29.4-21,2.1c-16.8-27.3-21-25.2-21,6.3
		c0,50.5,39.9,124,61,111.4c8.4-6.3,29.4,10.5,46.3,33.6c16.8,25.2,44.2,61,65.2,82c23.1,25.2,27.3,42,10.5,58.9
		c-14.7,14.7-10.5,33.6,16.8,65.2c25.2,27.3,44.2,35.7,52.6,18.9c16.8-25.2,52.6,6.3,136.7,115.6c46.3,61,248.1,180.8,302.8,180.8
		c12.6,0,23.1,10.5,23.1,23.1s14.7,16.8,31.5,10.5c18.9-6.3,37.8,2.1,44.2,18.9c8.4,16.8,105.1,61,227.1,96.7
		c115.6,35.7,250.2,79.9,296.5,96.7c46.3,16.8,164,35.7,262.8,42c208.1,12.6,372.1-21,574-121.9c182.9-90.4,309.1-193.4,637.1-517.2
		c195.5-195.5,292.2-277.5,307-262.8c31.5,31.5,10.5,254.4-35.7,346.9c-42.1,90.4-222.9,344.8-246,349c-8.4,2.1-61,50.5-117.7,107.2
		c-56.8,58.9-113.5,105.1-124,105.1c-12.6,0-35.7,18.9-50.5,42c-50.5,71.5-288,126.2-597.1,136.7
		C16711.5,14815.5,16564.3,14811.3,16534.9,14802.9z"/>
	<path d="M16423.4,13945c-27.3-25.2-14.7-100.9,23.1-145.1c18.9-23.1,71.5-65.2,113.5-90.4c96.7-56.8,132.5-151.4,128.3-340.6
		c-4.2-185-37.8-302.8-124-435.2c-90.4-136.7-178.7-193.4-300.7-193.4c-187.1,0-365.8,136.7-433.1,334.3
		c-50.5,149.3-39.9,237.6,50.5,418.4c111.4,225,166.1,401.6,130.4,422.6c-37.8,23.1-100.9,6.3-201.8-56.8
		c-319.6-199.7-616-590.8-717-950.3c-16.8-63.1-37.8-229.2-44.2-370c-35.7-750.6,340.6-1368.7,960.8-1576.9
		c174.5-58.9,473.1-54.7,668.6,10.5c441.5,145.1,738,500.4,878.8,1051.2c50.5,195.5,54.7,243.9,44.2,483.6
		c-27.3,712.7-357.4,1223.7-912.5,1408.7C16555.9,13959.8,16448.7,13972.4,16423.4,13945z"/>
</g>
</svg>
