<?xml version="1.0" encoding="utf-8"?>
<!-- Generator: Adobe Illustrator 27.5.0, SVG Export Plug-In . SVG Version: 6.00 Build 0)  -->
<svg version="1.1" id="Livello_1" xmlns="http://www.w3.org/2000/svg" xmlns:xlink="http://www.w3.org/1999/xlink" x="0px" y="0px"
	 viewBox="0 0 3908 1748" style="enable-background:new 0 0 3908 1748;" xml:space="preserve">
<g transform="translate(0.000000,1748.000000) scale(0.100000,-0.100000)">
	<path d="M10904.9,14340.5c-641.3-57.4-1365.8-223.9-1934.4-444.8c-581.6-223.9-1256.7-634.3-1716.3-1038.9
		c-807.5-711.7-1394.3-1753.5-1570.9-2783.8c-62.3-376-41.5-947.1,49.3-1257c210.3-708.9,690.7-1133.6,1396.9-1234.1
		c114.2-14.3,116.8-20.1,150.6-149.2c44.1-189.4,148-470.7,267.4-737.6c560.8-1245.5,1669.5-1991.7,2874.3-1931.5
		c576.4,28.7,1051.6,209.5,1480,568.2c184.4,152.1,392.1,384.6,392.1,439.1c0,51.7-80.5,2.9-181.8-114.8
		c-472.6-536.7-1256.7-826.5-1975.9-731.8c-997.1,132-1807.2,846.6-2152.5,1897c-101.3,301.3-194.7,743.3-166.2,772
		c13,11.5,98.7,37.3,192.1,57.4c758.2,157.8,1430.7,556.8,2035.7,1205.4c438.8,473.5,763.4,964.3,1023,1538.3
		c267.4,599.8,373.9,1021.7,379.1,1492.4c0,364.5-41.5,556.8-168.8,772c-495.9,826.5-1822.7,467.8-2921.1-789.2
		c-597.2-688.8-991.9-1532.5-1197-2554.2c-54.5-281.3-64.9-1168.1-15.6-1351.7c36.4-132,7.8-140.6-153.2-48.8
		c-254.5,143.5-467.4,490.8-555.7,904c-62.3,301.3-38.9,1018.8,51.9,1403.4c174,766.3,519.3,1440.7,1046.4,2054.9
		c794.5,918.4,1856.5,1538.3,3032.7,1762.1c864.6,163.6,2290.1,103.3,3391-143.5c342.7-77.5,893.2-232.5,952.9-269.8
		c26-17.2-15.6-54.5-140.2-132c-903.6-559.6-1882.5-1589.9-2534.2-2669c-238.9-396-501.1-972.9-615.4-1348.9
		c-480.4-1589.9,166.2-2795.3,1576.1-2938.8c968.5-97.6,2259,476.4,3237.8,1440.7c98.7,97.6,168.8,152.1,158.4,120.5
		c-85.7-232.5-98.7-519.5-33.8-674.4c137.6-318.6,568.6-261.2,927,120.5l142.8,152.1V7533c0-129.1,13-175.1,59.7-232.5
		c83.1-97.6,153.2-111.9,311.6-66c192.1,54.5,397.3,200.9,649.1,462.1c122,126.3,215.5,218.1,207.7,200.9
		c-7.8-14.3-158.4-312.8-332.4-660.1C17780.4,5756.6,17339,5044.8,16835.3,4511c-389.5-413.3-711.4-622.8-1176.2-772
		c-911.4-292.7-1550.1-43-1809.8,708.9c-31.2,89-67.5,163.6-80.5,163.6c-13,0-51.9-31.6-85.7-71.7c-80.5-89-85.7-243.9-10.4-376
		c140.2-252.6,542.7-542.4,849.1-611.3c477.8-109.1,1251.5,51.7,1861.7,387.4c589.4,324.3,1207.4,944.2,1796.8,1805.2
		c381.7,562.5,685.5,1119.3,1578.7,2921.6c431,866.7,501.1,993,545.3,981.5c264.8-80.4,327.2-83.2,495.9-34.4
		c93.5,25.8,194.7,68.9,225.9,94.7c51.9,43,51.9,45.9,5.2,25.8c-111.7-48.8-371.3-48.8-514.1-2.9c-80.5,25.8-153.2,60.3-161,74.6
		c-18.2,34.4,376.5,789.2,675.1,1291.5c581.6,972.9,1197,1627.2,1763,1868.3c779,332.9,1451.4,292.7,1817.5-109.1
		c135-146.4,241.5-332.9,293.4-516.6l41.5-149.2l70.1,40.2c103.9,57.4,142.8,183.7,103.9,318.6c-70.1,232.5-470,574-799.7,683
		c-646.5,209.5-1750-111.9-2484.8-720.3c-594.6-493.6-1251.5-1328.8-1776-2261.5c-62.3-109.1-116.8-206.6-122-212.4
		c-5.2-5.7-75.3,11.5-155.8,40.2c-236.3,83.2-462.2,54.5-620.6-80.4c-46.7-40.2-31.2-43,168.8-28.7c163.6,11.5,259.7,2.9,371.3-34.4
		c80.5-25.8,148-51.7,148-57.4c0-5.7-57.1-117.7-127.2-249.7c-70.1-132-233.7-456.3-366.1-726.1
		c-301.2-608.4-353.1-688.8-607.6-984.4c-238.9-275.5-524.5-496.5-646.5-505.1c-72.7-2.9-83.1,5.7-75.3,66
		c2.6,37.3,228.5,510.8,498.5,1056.1c272.6,542.4,493.3,993,493.3,1001.6c0,23-223.3,11.5-324.6-20.1
		c-70.1-20.1-148-83.2-238.9-186.5l-137.6-155v89c0,132-70.1,275.5-158.4,312.8c-124.6,57.4-358.3,20.1-547.9-89
		c-205.1-120.5-532.3-476.4-729.6-789.2c-508.9-806.4-1703.3-1624.4-2723.7-1868.3c-296-71.7-833.5-68.9-1046.4,2.9
		c-732.2,243.9-1030.8,929.9-843.9,1945.8c210.3,1133.6,875,2373.4,1853.9,3452.5c560.8,617,986.7,961.4,1604.6,1291.5
		c428.4,229.6,732.2,330,1062,350.1c384.3,25.8,721.8-94.7,833.5-292.7c51.9-94.7,59.7-255.4,20.8-370.2
		c-23.4-68.9-36.4-74.6-205.1-74.6c-218.1,0-373.9-66-488.1-209.5c-161-203.8-124.6-404.7,96.1-528.1
		c218.1-123.4,480.4-63.1,703.7,157.8c174,172.2,257.1,364.5,257.1,594.1c0,545.3-436.2,858.1-1248.9,895.4
		c-514.1,23-939.9-54.5-1433.3-266.9l-228.5-97.6L14675,13821c-451.8,152.1-1108.7,315.7-1550.1,390.3
		C12374.5,14337.6,11457.9,14389.3,10904.9,14340.5z M10904.9,12764.9c119.4-60.3,257.1-218.1,309-361.6
		c64.9-166.5,90.9-476.4,64.9-723.2c-46.7-413.3-140.2-731.8-363.5-1219.7c-576.4-1268.5-1438.5-2149.6-2461.5-2519.8
		c-285.6-100.4-654.3-180.8-688.1-143.5c-44.1,45.9,0,941.3,59.7,1262.8c215.5,1127.9,750.4,2195.5,1482.6,2964.6
		c355.7,376,675.1,611.3,999.7,740.4C10484.2,12833.8,10769.8,12833.8,10904.9,12764.9z M18177.7,9410
		c101.3-71.7,46.7-367.3-145.4-795c-288.2-645.7-747.8-1248.4-950.3-1248.4c-67.5,0-140.2,97.6-140.2,189.4
		c0,183.7,233.7,763.4,462.2,1142.2c150.6,252.6,485.5,631.4,605,688.8C18110.1,9435.8,18138.7,9441.5,18177.7,9410z"/>
	<path d="M21563.5,9562.1c-298.6-89-516.7-238.2-766-513.7c-449.2-496.5-618-1056.1-433.6-1455c90.9-200.9,220.7-301.3,472.6-358.7
		c399.9-91.8,794.5,57.4,1230.7,459.2c90.9,83.2,124.6,100.4,109.1,60.3c-38.9-106.2-46.7-292.7-15.6-355.9
		c28.6-63.1,168.8-146.4,241.5-146.4c20.8,0,186.9,298.5,381.7,688.8c212.9,427.6,399.9,763.4,490.7,881.1
		c181.8,238.2,412.8,450.6,592,545.3c277.8,143.5,259.6,48.8-145.4-749c-184.4-364.5-353.1-726.1-376.5-800.7
		c-75.3-246.8-38.9-528.1,75.3-576.9c72.7-31.6,236.3-20.1,347.9,25.8c150.6,57.4,358.3,215.2,571.2,436.2
		c174,175.1,184.4,180.8,184.4,111.9c0-177.9,145.4-410.4,314.2-505.1c54.5-31.6,184.4-71.7,288.2-89
		c345.3-54.5,706.2,74.6,1072.4,387.4l181.8,157.8l54.5-129.1c72.7-163.6,153.2-261.2,277.8-330
		c428.4-243.9,1056.8-2.9,1176.2,456.3c54.5,200.9,23.4,347.3-161,809.3c-233.7,579.7-241.5,731.8-36.3,883.9
		c77.9,57.4,114.2,66,244.1,57.4c127.2-11.5,163.6-25.8,215.5-91.8c31.2-43,59.7-103.3,59.7-134.9c0-45.9-18.2-54.5-106.5-54.5
		c-85.7,0-122-17.2-194.7-97.6c-166.2-183.7-90.9-390.3,140.2-390.3c368.7,0,503.7,482.1,207.7,726.1
		c-246.7,200.9-659.5,180.8-888-40.2c-244.1-238.2-254.5-485-46.7-1093.4c148-427.6,161-545.3,85.7-729
		c-85.7-206.6-332.4-312.8-568.6-241.1c-148,43-332.4,243.9-358.3,384.6c-15.6,94.7-5.2,117.7,98.7,255.4
		c142.8,180.8,384.3,576.9,384.3,622.8c0,51.7-174,8.6-303.8-74.6c-171.4-109.1-293.4-347.3-293.4-582.6
		c-2.6-86.1-20.8-120.5-114.2-209.5c-319.4-301.3-766-473.5-1025.6-396c-59.7,17.2-145.4,68.9-192.1,114.8
		c-80.5,77.5-83.1,89-83.1,307.1c2.6,249.7,57.1,410.4,140.2,410.4c111.6,0,656.9,172.2,843.9,269.8
		c368.7,186.5,571.2,401.8,638.7,674.4c109.1,447.7-514.1,611.3-1098.3,287c-451.8-252.6-880.2-840.9-942.5-1294.3
		c-13-91.8-44.1-155-124.6-246.8c-212.9-249.7-542.7-493.6-664.7-493.6c-101.3,0-75.3,66,311.6,835.1
		c334.9,665.8,368.7,754.8,384.3,993c10.4,200.9,10.4,209.5-67.5,292.7c-57.1,63.1-103.9,89-166.2,89
		c-174-2.9-498.5-192.3-740-439.1l-109.1-109.1l15.6,152.1c13,134.9,5.2,166.5-49.3,235.3c-46.7,60.3-88.3,83.2-161,86.1l-96.1,2.9
		l-181.8-358.7c-101.3-198-231.1-456.3-288.2-574c-210.3-430.5-238.9-476.4-381.7-640c-662.1-763.4-1573.5-829.4-1498.2-111.9
		c10.4,83.2,31.2,195.2,51.9,243.9c31.2,86.1,46.7,94.7,225.9,132c433.6,86.1,898.4,304.2,1119.1,516.6
		c127.2,126.3,254.5,367.3,254.5,487.9c0,106.2-88.3,249.7-186.9,307.1C22064.6,9605.1,21745.2,9616.6,21563.5,9562.1z
		 M21895.8,9484.6c83.1-91.8-31.2-433.4-228.5-688.8c-127.2-163.6-399.9-367.3-605-450.6c-225.9-91.8-241.5-83.2-158.4,77.5
		c306.4,582.6,729.6,1087.7,921.8,1096.3C21846.5,9519,21877.7,9504.7,21895.8,9484.6z M26128.1,9484.6
		c93.5-103.3-64.9-493.6-311.6-766.3c-166.2-183.7-482.9-384.6-667.3-424.7l-90.9-17.2l85.7,169.3
		c290.8,571.1,714,1070.5,914,1073.3C26078.8,9519,26110,9504.7,26128.1,9484.6z"/>
	<path d="M29581.5,9559.2c-311.6-83.2-675.1-341.5-890.6-631.4c-480.4-654.3-508.9-1369-64.9-1618.6
		c127.2-71.7,418-123.4,568.6-97.6c319.4,51.7,672.5,246.8,947.7,528.1l111.7,114.8l-33.8-157.8c-46.7-226.7-5.2-381.7,122-456.3
		c88.3-54.5,98.7-54.5,225.9-8.6c184.4,68.9,399.9,212.4,625.8,424.7c109.1,103.3,184.4,157.8,174,126.3
		c-85.7-226.7-26-502.2,116.8-556.8c231.1-89,724.4,241.1,1098.3,740.4c168.8,223.9,405.1,596.9,405.1,640c0,66-57.1,0-197.3-226.7
		c-280.4-462.1-823.1-984.4-1020.4-984.4c-54.5,0-59.7,8.6-44.1,89c7.8,48.8,72.7,200.9,140.2,338.6
		c70.1,134.9,181.8,355.9,246.7,490.8c64.9,134.9,231.1,464.9,366.1,731.8l246.7,487.9l-119.4,8.6c-70.1,5.7-168.8-11.5-233.7-37.3
		c-140.2-60.3-329.8-289.9-441.4-533.8c-322-700.3-511.5-987.3-862-1297.2c-314.2-275.5-524.5-350.1-482.9-172.2
		c7.8,43,176.6,396,373.9,783.5c194.7,387.4,376.5,760.5,402.5,832.3c62.3,172.2,38.9,301.3-70.1,376
		c-171.4,117.7-179.2,109.1-553.1-648.6c-316.8-637.1-358.3-706-550.5-918.4c-332.4-370.2-682.9-568.2-1004.8-571.1
		c-433.6-5.7-558.2,304.2-347.9,858.1c168.8,450.6,589.4,1044.6,846.5,1196.8c174,103.3,270,120.5,384.3,68.9
		c85.7-40.2,93.5-54.5,85.7-137.8c-7.8-89-15.6-94.7-124.6-109.1c-145.4-20.1-246.7-94.7-283-203.8
		c-54.5-172.2,38.9-284.1,231.1-284.1c129.8,0,231.1,54.5,322,172.2c83.1,109.1,93.5,330,23.4,462.1
		C30215,9576.4,29916.4,9651,29581.5,9559.2z"/>
</g>
</svg>
